<svg width="125" height="104" viewBox="0 0 125 104" fill="none" xmlns="http://www.w3.org/2000/svg">
<path d="M35.9166 19.448H27.0766V10.4H18.0286V35.36H31.0286V44.2H18.0286V69.16H22.5006V78H4.61263V69.16H9.18863V10.4H4.61263V1.45599H35.9166V19.448ZM76.4189 69.16V78H63.9389V77.896L62.4829 62.4H54.1629L52.8109 77.896H52.7069V78H40.2269V69.16H44.6989L49.8989 10.4H45.4269V1.56H71.2189V10.4H66.7469L72.0509 69.16H76.4189ZM61.7549 53.456L58.3229 16.12L54.9949 53.456H61.7549ZM120.749 10.504H116.277V69.16H119.293V78H107.333V77.896L107.229 78L97.4529 38.272V78H84.0369V69.16H88.5089V10.504H84.0369V1.56H97.4529V1.664H97.5569L107.333 41.392V1.56H120.749V10.504Z" fill="white"/>
</svg>
